<?xml version="1.0" standalone="no"?>
<!DOCTYPE svg PUBLIC "-//W3C//DTD SVG 20010904//EN"
 "http://www.w3.org/TR/2001/REC-SVG-20010904/DTD/svg10.dtd">
<svg version="1.0" xmlns="http://www.w3.org/2000/svg"
 width="260.000000pt" height="260.000000pt" viewBox="0 0 260.000000 260.000000"
 preserveAspectRatio="xMidYMid meet">
<metadata>
Created by potrace 1.11, written by Peter Selinger 2001-2013
</metadata>
<g transform="translate(0.000000,260.000000) scale(0.100000,-0.100000)"
fill="#000000" stroke="none">
<path d="M1065 2593 c-179 -32 -259 -54 -350 -94 -76 -33 -172 -98 -229 -153
-79 -78 -221 -291 -242 -363 -42 -144 22 -293 140 -328 56 -17 149 -20 175 -5
10 5 43 40 74 78 30 38 61 76 69 84 7 8 27 29 43 47 l30 33 -64 -6 c-127 -11
-220 34 -268 132 -43 88 -30 142 42 179 34 18 255 94 255 88 0 -3 11 0 26 5
14 6 37 12 52 15 15 2 51 9 81 15 97 18 139 14 172 -19 l29 -29 -6 -279 c-4
-153 -7 -289 -8 -302 -1 -23 -6 -26 -91 -38 -208 -29 -398 -123 -532 -262
-102 -105 -235 -339 -269 -471 -37 -145 15 -294 126 -361 39 -24 109 -50 149
-54 34 -4 39 -1 81 51 25 30 64 77 87 102 23 26 42 50 43 54 0 3 -15 11 -33
17 -43 15 -109 76 -136 126 -23 43 -28 125 -11 170 5 14 30 45 55 69 48 47
123 78 220 91 55 8 255 9 262 2 2 -3 5 -48 5 -100 0 -120 -21 -199 -65 -241
l-32 -31 27 -26 c44 -43 61 -124 60 -274 -2 -124 -4 -165 -17 -300 -9 -85 -20
-158 -31 -197 -4 -15 11 -17 171 -17 l176 -1 100 37 100 37 50 80 c27 45 57
91 65 103 16 22 15 23 -7 24 -66 2 -104 26 -134 85 -18 35 -20 56 -17 224 1
101 4 222 7 270 2 47 4 106 4 132 l1 47 58 -27 c124 -59 203 -116 228 -164 17
-32 23 -268 10 -381 -11 -102 -40 -203 -74 -257 l-30 -48 31 18 c56 33 251
117 348 149 l94 32 29 65 c16 36 46 84 68 108 21 24 38 47 38 50 0 4 -17 23
-39 44 l-39 37 4 225 c2 127 8 243 15 268 6 23 30 63 52 88 l40 46 -28 25
c-60 57 -64 91 -51 508 3 83 8 240 11 350 8 288 18 347 68 403 17 18 18 22 5
22 -31 0 -69 -85 -82 -185 -3 -22 -8 -157 -12 -300 -4 -143 -8 -300 -9 -350
-11 -340 -4 -404 49 -454 l23 -22 -33 -36 c-55 -60 -63 -101 -67 -353 -2 -126
0 -234 6 -245 5 -11 21 -30 35 -42 14 -12 24 -24 22 -26 -3 -1 -52 -22 -110
-46 -58 -24 -118 -49 -135 -56 -57 -25 -107 -45 -111 -45 -3 0 5 18 16 39 30
61 41 123 47 282 6 166 2 187 -58 279 -52 81 -110 142 -184 195 -103 73 -232
127 -240 102 -2 -7 -6 -84 -9 -172 -3 -88 -9 -257 -13 -375 -11 -359 -10 -390
18 -439 13 -24 41 -53 63 -66 l39 -23 -54 -23 c-30 -13 -148 -70 -262 -126
-115 -57 -210 -103 -212 -103 -2 0 11 26 30 58 39 66 79 183 90 262 3 30 8 66
10 80 2 14 7 108 10 209 8 224 -6 301 -67 367 -13 15 -16 24 -9 29 18 10 60
100 76 160 19 76 30 221 16 230 -6 3 -60 6 -119 7 -108 0 -234 -20 -288 -46
-16 -8 -45 -21 -64 -30 -103 -47 -226 -180 -260 -280 -45 -135 -14 -227 110
-325 l25 -19 -58 13 c-176 41 -267 195 -232 390 11 58 57 154 103 217 90 122
272 237 447 282 93 23 151 30 263 29 56 -1 102 1 103 5 0 4 2 36 4 72 1 36 6
135 10 220 16 338 14 445 -10 516 -31 93 -39 99 -138 98 -89 0 -198 -22 -317
-61 -228 -76 -400 -240 -400 -383 1 -125 114 -239 241 -243 27 -1 49 -5 49 -8
0 -12 -87 -24 -127 -17 -101 17 -157 70 -180 170 -31 135 29 260 180 376 75
57 212 123 307 147 119 30 217 45 344 51 49 2 92 6 95 9 6 6 -210 4 -244 -2z"/>
<path d="M1435 2585 c-53 -11 -147 -24 -182 -25 -8 0 -3 -19 13 -54 28 -61 42
-154 38 -254 -3 -83 -13 -335 -20 -502 -3 -69 -7 -130 -9 -137 -2 -7 -15 -9
-37 -4 -54 12 -226 5 -310 -13 -103 -22 -205 -66 -305 -132 -213 -141 -310
-356 -248 -544 18 -55 65 -114 107 -136 l31 -16 -19 29 c-55 80 -65 175 -30
268 62 164 221 296 421 351 80 23 339 28 359 9 10 -10 13 -36 10 -95 -5 -106
-28 -201 -64 -268 l-29 -54 25 -44 c41 -69 51 -126 48 -264 -8 -337 -23 -444
-89 -603 -4 -9 -5 -17 -2 -17 2 0 91 42 196 93 l191 93 -26 23 c-14 12 -35 43
-46 67 -24 56 -24 81 -3 709 10 269 12 305 18 311 9 10 118 -26 182 -59 95
-50 184 -124 258 -217 l29 -35 -28 50 c-35 66 -120 179 -191 256 -64 69 -157
134 -213 149 -33 9 -36 13 -34 42 1 18 5 101 9 183 3 83 8 195 10 250 3 55 7
162 10 239 7 184 19 245 66 324 10 18 19 35 19 38 0 8 -96 2 -155 -11z"/>
<path d="M1598 2553 c-55 -103 -60 -136 -73 -468 -2 -71 -7 -202 -11 -290 -3
-88 -7 -178 -9 -200 l-2 -40 69 -33 c110 -53 249 -200 362 -382 l46 -74 1 54
c0 30 2 98 4 150 10 265 29 937 29 1052 1 89 -1 98 -23 122 -59 63 -158 2
-144 -88 4 -25 2 -29 -8 -18 -19 18 -17 84 4 115 28 43 74 62 182 73 96 9 246
56 231 71 -3 3 -25 -1 -48 -10 -53 -20 -115 -34 -188 -42 -136 -15 -176 -41
-307 -200 -72 -88 -86 -131 -59 -184 15 -27 75 -55 99 -45 7 3 25 25 40 49 55
86 53 110 30 -570 -3 -104 -7 -204 -7 -222 0 -31 0 -31 -79 48 -54 54 -100 89
-147 113 l-67 33 3 74 c1 41 5 139 9 219 21 518 22 539 45 606 12 33 32 76 45
96 18 27 21 38 12 38 -8 0 -25 -21 -39 -47z"/>
<path d="M2190 2534 c-60 -20 -182 -41 -205 -35 -5 1 2 -11 18 -26 34 -36 44
-72 41 -143 -1 -30 -5 -172 -9 -315 -10 -357 -12 -426 -20 -690 -4 -126 -9
-333 -11 -460 -5 -277 -3 -248 -20 -315 -7 -30 -12 -55 -11 -56 1 -2 16 3 32
10 81 37 124 55 167 71 l46 17 -20 34 c-18 31 -20 50 -19 217 3 311 6 334 56
407 l24 35 -27 55 c-27 54 -27 57 -26 245 1 105 4 302 8 438 12 408 14 438 38
500 6 15 9 29 7 31 -2 1 -33 -7 -69 -20z"/>
</g>
</svg>
